<svg width="18" height="16" viewBox="0 0 18 16" fill="none" xmlns="http://www.w3.org/2000/svg">
<path d="M17.8991 2.6474C18.0467 2.37124 18.0219 2.05816 17.8926 1.79827C17.929 1.50255 17.8484 1.20229 17.5568 0.971987C17.2853 0.757624 17.0139 0.543136 16.7426 0.328731C16.2655 -0.0481001 15.5184 -0.167038 15.0543 0.328731C12.9465 2.58027 10.7423 4.73402 8.45731 6.80936C6.75849 5.28601 5.03904 3.78335 3.33189 2.27872C2.73274 1.75049 1.8655 1.91625 1.48853 2.54552C0.939458 2.80712 0.494388 3.14816 0.126358 3.73024C-0.0488783 4.00757 -0.0352219 4.35764 0.126358 4.63597C1.22845 6.53274 3.35869 8.20041 5.11018 9.73512C4.87581 9.9365 4.64317 10.1398 4.40408 10.3369C2.04433 12.2821 0.452639 13.5163 3.40568 15.5108C3.44552 15.5377 3.48615 15.5318 3.5266 15.5475C3.58317 15.5726 3.63745 15.5902 3.70018 15.6001C3.71969 15.6008 3.7379 15.604 3.75711 15.6025C3.81789 15.6073 3.87737 15.6221 3.93898 15.6105C5.52664 15.3117 7.00309 14.1174 8.34268 12.8023C9.64763 14.037 11.0372 15.2165 12.5651 15.9164C12.9289 16.0831 13.3626 15.986 13.6427 15.7529C14.1123 15.7869 14.5405 15.5068 14.7554 15.1042C14.7872 15.0853 14.8077 15.0746 14.8422 15.0539C15.5249 14.6445 15.5873 13.8291 15.0821 13.2671C13.9413 11.9981 12.7287 10.7918 11.4925 9.60694C13.7183 7.51924 16.4976 5.26766 17.8991 2.6474Z" fill="white"/>
<path d="M17.8991 2.6474C18.0467 2.37124 18.0219 2.05816 17.8926 1.79827C17.929 1.50255 17.8484 1.20229 17.5568 0.971987C17.2853 0.757624 17.0139 0.543136 16.7426 0.328731C16.2655 -0.0481001 15.5184 -0.167038 15.0543 0.328731C12.9465 2.58027 10.7423 4.73402 8.45731 6.80936C6.75849 5.28601 5.03904 3.78335 3.33189 2.27872C2.73274 1.75049 1.8655 1.91625 1.48853 2.54552C0.939458 2.80712 0.494388 3.14816 0.126358 3.73024C-0.0488783 4.00757 -0.0352219 4.35764 0.126358 4.63597C1.22845 6.53274 3.35869 8.20041 5.11018 9.73512C4.87581 9.9365 4.64317 10.1398 4.40408 10.3369C2.04433 12.2821 0.452639 13.5163 3.40568 15.5108C3.44552 15.5377 3.48615 15.5318 3.5266 15.5475C3.58317 15.5726 3.63745 15.5902 3.70018 15.6001C3.71969 15.6008 3.7379 15.604 3.75711 15.6025C3.81789 15.6073 3.87737 15.6221 3.93898 15.6105C5.52664 15.3117 7.00309 14.1174 8.34268 12.8023C9.64763 14.037 11.0372 15.2165 12.5651 15.9164C12.9289 16.0831 13.3626 15.986 13.6427 15.7529C14.1123 15.7869 14.5405 15.5068 14.7554 15.1042C14.7872 15.0853 14.8077 15.0746 14.8422 15.0539C15.5249 14.6445 15.5873 13.8291 15.0821 13.2671C13.9413 11.9981 12.7287 10.7918 11.4925 9.60694C13.7183 7.51924 16.4976 5.26766 17.8991 2.6474Z" fill="url(#paint0_linear)"/>
<defs>
<linearGradient id="paint0_linear" x1="9" y1="0" x2="9" y2="16" gradientUnits="userSpaceOnUse">
<stop stop-color="#E0CFE2"/>
<stop offset="0.494792" stop-color="white"/>
</linearGradient>
</defs>
</svg>
